<svg id="visual" viewBox="0 0 900 200" width="900" height="200" xmlns="http://www.w3.org/2000/svg" xmlns:xlink="http://www.w3.org/1999/xlink" version="1.1"><rect x="0" y="0" width="900" height="200" fill="#322e2f"></rect><path d="M0 73L9.3 79C18.7 85 37.3 97 56.2 102.3C75 107.7 94 106.3 112.8 107.7C131.7 109 150.3 113 169 107.5C187.7 102 206.3 87 225 84.3C243.7 81.7 262.3 91.3 281.2 97.5C300 103.7 319 106.3 337.8 110.2C356.7 114 375.3 119 394 116.5C412.7 114 431.3 104 450 98.5C468.7 93 487.3 92 506.2 95.3C525 98.7 544 106.3 562.8 109.5C581.7 112.7 600.3 111.3 619 107C637.7 102.7 656.3 95.3 675 88.8C693.7 82.3 712.3 76.7 731.2 82.2C750 87.7 769 104.3 787.8 112.2C806.7 120 825.3 119 844 116.5C862.7 114 881.3 110 890.7 108L900 106L900 201L890.7 201C881.3 201 862.7 201 844 201C825.3 201 806.7 201 787.8 201C769 201 750 201 731.2 201C712.3 201 693.7 201 675 201C656.3 201 637.7 201 619 201C600.3 201 581.7 201 562.8 201C544 201 525 201 506.2 201C487.3 201 468.7 201 450 201C431.3 201 412.7 201 394 201C375.3 201 356.7 201 337.8 201C319 201 300 201 281.2 201C262.3 201 243.7 201 225 201C206.3 201 187.7 201 169 201C150.3 201 131.7 201 112.8 201C94 201 75 201 56.2 201C37.3 201 18.7 201 9.3 201L0 201Z" fill="#d9138a"></path><path d="M0 146L9.3 146.7C18.7 147.3 37.3 148.7 56.2 143.3C75 138 94 126 112.8 125C131.7 124 150.3 134 169 135.8C187.7 137.7 206.3 131.3 225 132.5C243.7 133.7 262.3 142.3 281.2 145C300 147.7 319 144.3 337.8 138.3C356.7 132.3 375.3 123.7 394 121.5C412.7 119.3 431.3 123.7 450 122.7C468.7 121.7 487.3 115.3 506.2 112.5C525 109.7 544 110.3 562.8 110.8C581.7 111.3 600.3 111.7 619 115C637.7 118.3 656.3 124.7 675 128C693.7 131.3 712.3 131.7 731.2 133.3C750 135 769 138 787.8 134.7C806.7 131.3 825.3 121.7 844 115.5C862.7 109.3 881.3 106.7 890.7 105.3L900 104L900 201L890.7 201C881.3 201 862.7 201 844 201C825.3 201 806.7 201 787.8 201C769 201 750 201 731.2 201C712.3 201 693.7 201 675 201C656.3 201 637.7 201 619 201C600.3 201 581.7 201 562.8 201C544 201 525 201 506.2 201C487.3 201 468.7 201 450 201C431.3 201 412.7 201 394 201C375.3 201 356.7 201 337.8 201C319 201 300 201 281.2 201C262.3 201 243.7 201 225 201C206.3 201 187.7 201 169 201C150.3 201 131.7 201 112.8 201C94 201 75 201 56.2 201C37.3 201 18.7 201 9.3 201L0 201Z" fill="#981d66"></path><path d="M0 155L9.3 154.3C18.7 153.7 37.3 152.3 56.2 155.7C75 159 94 167 112.8 168.7C131.7 170.3 150.3 165.7 169 162C187.7 158.3 206.3 155.7 225 154C243.7 152.3 262.3 151.7 281.2 155.7C300 159.7 319 168.3 337.8 169.7C356.7 171 375.3 165 394 162.2C412.7 159.3 431.3 159.7 450 159.3C468.7 159 487.3 158 506.2 156.7C525 155.3 544 153.7 562.8 153.3C581.7 153 600.3 154 619 154C637.7 154 656.3 153 675 150.8C693.7 148.7 712.3 145.3 731.2 147.8C750 150.3 769 158.7 787.8 163.2C806.7 167.7 825.3 168.3 844 166C862.7 163.7 881.3 158.3 890.7 155.7L900 153L900 201L890.7 201C881.3 201 862.7 201 844 201C825.3 201 806.7 201 787.8 201C769 201 750 201 731.2 201C712.3 201 693.7 201 675 201C656.3 201 637.7 201 619 201C600.3 201 581.7 201 562.8 201C544 201 525 201 506.2 201C487.3 201 468.7 201 450 201C431.3 201 412.7 201 394 201C375.3 201 356.7 201 337.8 201C319 201 300 201 281.2 201C262.3 201 243.7 201 225 201C206.3 201 187.7 201 169 201C150.3 201 131.7 201 112.8 201C94 201 75 201 56.2 201C37.3 201 18.7 201 9.3 201L0 201Z" fill="#5c1a42"></path></svg>