<svg id="visual" viewBox="0 0 900 200" width="900" height="200" xmlns="http://www.w3.org/2000/svg" xmlns:xlink="http://www.w3.org/1999/xlink" version="1.1"><path d="M0 95L6.8 87.5C13.7 80 27.3 65 41 67C54.7 69 68.3 88 82 90C95.7 92 109.3 77 123 71C136.7 65 150.3 68 164 67.8C177.7 67.7 191.3 64.3 204.8 71.8C218.3 79.3 231.7 97.7 245.2 90.8C258.7 84 272.3 52 286 43.7C299.7 35.3 313.3 50.7 327 61C340.7 71.3 354.3 76.7 368 79.7C381.7 82.7 395.3 83.3 409 83.5C422.7 83.7 436.3 83.3 450 92.2C463.7 101 477.3 119 491 120C504.7 121 518.3 105 532 90.5C545.7 76 559.3 63 573 56.7C586.7 50.3 600.3 50.7 614 58.8C627.7 67 641.3 83 654.8 96C668.3 109 681.7 119 695.2 113.5C708.7 108 722.3 87 736 78.3C749.7 69.7 763.3 73.3 777 79C790.7 84.7 804.3 92.3 818 84.7C831.7 77 845.3 54 859 50C872.7 46 886.3 61 893.2 68.5L900 76L900 0L893.2 0C886.3 0 872.7 0 859 0C845.3 0 831.7 0 818 0C804.3 0 790.7 0 777 0C763.3 0 749.7 0 736 0C722.3 0 708.7 0 695.2 0C681.7 0 668.3 0 654.8 0C641.3 0 627.7 0 614 0C600.3 0 586.7 0 573 0C559.3 0 545.7 0 532 0C518.3 0 504.7 0 491 0C477.3 0 463.7 0 450 0C436.3 0 422.7 0 409 0C395.3 0 381.7 0 368 0C354.3 0 340.7 0 327 0C313.3 0 299.7 0 286 0C272.3 0 258.7 0 245.2 0C231.7 0 218.3 0 204.8 0C191.3 0 177.7 0 164 0C150.3 0 136.7 0 123 0C109.3 0 95.7 0 82 0C68.3 0 54.7 0 41 0C27.3 0 13.7 0 6.8 0L0 0Z" fill="#d9138a" stroke-linecap="round" stroke-linejoin="miter"></path></svg>